<?xml version="1.0" encoding="UTF-8" standalone="no"?>
<svg
   width="925"
   height="300"
   viewBox="0 0 925 300"
   role="img"
   version="1.1"
   id="svg7"
   xmlns:xlink="http://www.w3.org/1999/xlink"
   xmlns="http://www.w3.org/2000/svg"
   xmlns:svg="http://www.w3.org/2000/svg"
   xmlns:rdf="http://www.w3.org/1999/02/22-rdf-syntax-ns#"
   xmlns:cc="http://creativecommons.org/ns#"
   xmlns:dc="http://purl.org/dc/elements/1.1/">
  <title
     id="title1">svyLab logo</title>
  <defs
     id="defs2">
    <linearGradient
       id="gradBrand"
       x1="0"
       y1="0"
       x2="1"
       y2="0">
      <stop
         offset="0%"
         stop-color="#14B8A6"
         id="stop1" />
      <stop
         offset="100%"
         stop-color="#0D9488"
         id="stop2" />
    </linearGradient>
    <linearGradient
       xlink:href="#gradBrand"
       id="linearGradient2"
       x1="220.06146"
       y1="247.96428"
       x2="325.42828"
       y2="247.96428"
       gradientTransform="scale(0.76062662,1.3147055)"
       gradientUnits="userSpaceOnUse" />
  </defs>
  <g
     transform="matrix(1.35,0,0,1.35,-77,-390)"
     id="g6">
    <path
       d="m 184,346 q 28,-22 56,0 16,12 -2,26 -34,22 -34,34 0,12 30,26 18,8 10,22 -26,20 -58,2 -22,-12 -18,-32 6,-26 30,-40 18,-10 18,-18 0,-12 -24,-18 -24,-6 -6,-22 z"
       fill="url(#gradBrand)"
       opacity="1"
       id="path2"
       style="fill:url(#linearGradient2)" />
    <rect
       x="230"
       y="340"
       width="26"
       height="120"
       rx="7"
       fill="#14b8a6"
       id="rect2" />
    <g
       fill="#0d9488"
       id="g5">
      <circle
         cx="150"
         cy="370"
         r="5"
         id="circle2" />
      <circle
         cx="290"
         cy="418"
         r="5"
         id="circle3" />
      <circle
         cx="208"
         cy="470"
         r="5"
         id="circle4" />
      <circle
         cx="232"
         cy="328"
         r="5"
         id="circle5" />
    </g>
  </g>
  <text
     x="339.36859"
     y="156.55295"
     font-family="Poppins, Inter, ui-sans-serif, system-ui, '-apple-system', 'Segoe UI', Roboto, Helvetica, Arial, 'Apple Color Emoji', 'Segoe UI Emoji'"
     font-size="170.513px"
     font-weight="800"
     fill="#0f172a"
     dominant-baseline="middle"
     text-anchor="start"
     letter-spacing="-0.5px"
     id="text7"
     transform="scale(0.98845191,1.011683)"
     style="stroke-width:0.775062"><tspan
       fill="#0f172a"
       font-weight="800"
       id="tspan6"
       style="stroke-width:0.775062">svy</tspan><tspan
       fill="url(#gradBrand)"
       font-weight="700"
       id="tspan7"
       style="stroke-width:0.775062">Lab</tspan></text>
  <metadata
     id="metadata7">
    <rdf:RDF>
      <cc:Work
         rdf:about="">
        <dc:title>svyLab logo</dc:title>
      </cc:Work>
    </rdf:RDF>
  </metadata>
</svg>
