<svg xmlns="http://www.w3.org/2000/svg" width="2400" height="800" viewBox="0 0 2400 800" role="img">
  <title>svyLab logo</title>
  <defs>
      <linearGradient id="gradBrand" x1="0%" y1="0%" x2="100%" y2="0%">
        <stop offset="0%" stop-color="#14B8A6"/>
        <stop offset="100%" stop-color="#0D9488"/>
      </linearGradient>
    </defs>
  
  
    <g transform="translate(220,400.0) scale(1.35) translate(-220,-400.0)">
      <path d="M 184 346.0 q 28 -22 56 0 q 16 12 -2 26 q -34 22 -34 34 q 0 12 30 26 q 18 8 10 22 q -26 20 -58 2 q -22 -12 -18 -32 q 6 -26 30 -40 q 18 -10 18 -18 q 0 -12 -24 -18 q -24 -6 -6 -22 z" fill="url(#gradBrand)" opacity="1"/>
      <rect x="230" y="340.0" width="26" height="120" rx="7" fill="#14B8A6"/>
      <g fill="#0D9488">
        <circle cx="150" cy="370.0" r="5"/>
        <circle cx="290" cy="418.0" r="5"/>
        <circle cx="208" cy="470.0" r="5"/>
        <circle cx="232" cy="328.0" r="5"/>
      </g>
    </g>
    
    <text x="336" y="400.0" font-family="Poppins, Inter, ui-sans-serif, system-ui, -apple-system, 'Segoe UI', Roboto, Helvetica, Arial, 'Apple Color Emoji', 'Segoe UI Emoji'" font-size="220"
          font-weight="800" fill="#0F172A" dominant-baseline="middle"
          text-anchor="start" letter-spacing="-0.5px">
      <tspan fill="#0F172A" font-weight="800">svy</tspan><tspan fill="url(#gradBrand)" font-weight="700">Lab</tspan>
    </text>
    
</svg>